<svg width="600" height="600" xmlns="http://www.w3.org/2000/svg">
 <g>
  <g id="svg_74">
   <g id="svg_15">
    <rect stroke="#FFD16B" id="svg_4" height="23.09572" width="87.614771" y="277.48809" x="246.184204" fill="#FFD16B"/>
    <rect stroke="#FFD16B" id="svg_5" height="23.09572" width="62.844102" y="253.634857" x="257.652185" fill="#FFD16B"/>
    <rect stroke="#FFD16B" id="svg_8" height="23.09572" width="22.477085" y="229.781623" x="269.12005" fill="#FFD16B"/>
    <rect stroke="#FFD16B" id="svg_9" height="23.09572" width="22.477085" y="205.928391" x="280.58795" fill="#FFD16B"/>
    <rect stroke="#FFD16B" id="svg_10" height="118.967375" width="22.477085" y="181.616443" x="287.46869" fill="#FFD16B"/>
    <rect stroke="#FFD16B" id="svg_11" height="23.09572" width="22.477085" y="206.387106" x="293.890715" fill="#FFD16B"/>
    <rect stroke="#FFD16B" id="svg_12" height="25.848016" width="22.477085" y="230.24034" x="305.817331" fill="#FFD16B"/>
    <rect stroke="#FFD16B" id="svg_13" height="23.09572" width="22.477085" y="254.552289" x="317.285232" fill="#FFD16B"/>
    <rect stroke="#FFD16B" id="svg_14" height="23.09572" width="22.477085" y="277.946806" x="329.670565" fill="#FFD16B"/>
   </g>
   <g transform="rotate(-180 299.29638671875,360.30108642578125) " id="svg_25">
    <rect stroke="#797D81" id="svg_16" height="23.09572" width="87.614771" y="396.459673" x="246.314645" fill="#797D81"/>
    <rect stroke="#797D81" id="svg_17" height="23.09572" width="62.844102" y="372.606441" x="257.782626" fill="#797D81"/>
    <rect stroke="#797D81" id="svg_18" height="23.09572" width="22.477085" y="348.753207" x="269.250492" fill="#797D81"/>
    <rect stroke="#797D81" id="svg_19" height="23.09572" width="22.477085" y="324.899974" x="280.718392" fill="#797D81"/>
    <rect stroke="#797D81" id="svg_20" height="118.967375" width="22.477085" y="300.588026" x="287.599132" fill="#797D81"/>
    <rect stroke="#797D81" id="svg_21" height="23.09572" width="22.477085" y="325.35869" x="294.021156" fill="#797D81"/>
    <rect stroke="#797D81" id="svg_22" height="25.848016" width="22.477085" y="349.211923" x="305.947773" fill="#797D81"/>
    <rect stroke="#797D81" id="svg_23" height="23.09572" width="22.477085" y="373.523872" x="317.415673" fill="#797D81"/>
    <rect stroke="#797D81" id="svg_24" height="23.09572" width="22.477085" y="396.91839" x="329.801006" fill="#797D81"/>
   </g>
  </g>
 </g>
</svg>